<svg width="14" height="18" viewBox="0 0 14 18" xmlns="http://www.w3.org/2000/svg"><path d="M8.83 14.25v3.214c0 .143-.054.268-.161.375-.107.107-.232.161-.375.161h-3.214c-.143 0-.268-.054-.375-.161-.107-.107-.161-.232-.161-.375v-3.214c0-.143.054-.268.161-.375.107-.107.232-.161.375-.161h3.214c.143 0 .268.054.375.161.107.107.161.232.161.375zm4.232-8.036c0 .482-.069.933-.208 1.353-.138.42-.295.761-.469 1.025-.174.263-.42.529-.737.797s-.574.462-.77.583c-.196.121-.469.279-.817.475-.366.205-.672.496-.917.871-.246.375-.368.674-.368.897 0 .152-.054.297-.161.435-.107.138-.232.208-.375.208h-3.214c-.134 0-.248-.083-.342-.248-.094-.165-.141-.333-.141-.502v-.603c0-.741.29-1.44.871-2.096.58-.656 1.219-1.141 1.915-1.453.527-.241.902-.491 1.125-.75.223-.259.335-.598.335-1.018 0-.375-.208-.705-.623-.991-.415-.286-.895-.429-1.44-.429-.58 0-1.062.129-1.446.388-.313.223-.79.737-1.433 1.54-.116.143-.254.214-.415.214-.107 0-.219-.036-.335-.107l-2.196-1.674c-.116-.089-.185-.201-.208-.335-.022-.134.002-.259.074-.375 1.429-2.375 3.5-3.563 6.214-3.563.714 0 1.433.138 2.156.415.723.277 1.375.647 1.955 1.112.58.464 1.054 1.033 1.42 1.708.366.674.549 1.382.549 2.123z" fill="#333"/></svg>
