<svg width="24" height="23" viewBox="0 0 24 23" xmlns="http://www.w3.org/2000/svg"><path d="M13.714 18.844v-2.545c0-.125-.042-.23-.127-.315-.085-.085-.185-.127-.301-.127h-2.571c-.116 0-.217.042-.301.127-.085.085-.127.19-.127.315v2.545c0 .125.042.23.127.315.085.085.185.127.301.127h2.571c.116 0 .217-.042.301-.127.085-.085.127-.19.127-.315zm-.027-5.009l.241-6.147c0-.107-.045-.192-.134-.254-.116-.098-.223-.147-.321-.147h-2.946c-.098 0-.205.049-.321.147-.089.063-.134.156-.134.281l.228 6.121c0 .089.045.163.134.221.089.058.196.087.321.087h2.478c.125 0 .23-.029.315-.087.085-.058.132-.132.141-.221zm-.188-12.509l10.286 18.857c.313.563.304 1.125-.027 1.688-.152.259-.359.464-.623.616-.263.152-.547.228-.85.228h-20.571c-.304 0-.587-.076-.85-.228-.263-.152-.471-.357-.623-.616-.33-.563-.339-1.125-.027-1.688l10.286-18.857c.152-.277.362-.496.629-.656.268-.161.558-.241.871-.241.313 0 .603.08.871.241.268.161.478.379.629.656z"/></svg>