<svg width="21" height="21" viewBox="0 0 21 21" xmlns="http://www.w3.org/2000/svg"><path d="M16.286 11.286v-1.714c0-.232-.085-.433-.254-.603-.17-.17-.371-.254-.603-.254h-10.286c-.232 0-.433.085-.603.254-.17.17-.254.371-.254.603v1.714c0 .232.085.433.254.603.17.17.371.254.603.254h10.286c.232 0 .433-.085.603-.254.17-.17.254-.371.254-.603zm4.286-.857c0 1.866-.46 3.587-1.379 5.163-.92 1.576-2.167 2.824-3.743 3.743-1.576.92-3.297 1.379-5.163 1.379s-3.587-.46-5.163-1.379c-1.576-.92-2.824-2.167-3.743-3.743-.92-1.576-1.379-3.297-1.379-5.163s.46-3.587 1.379-5.163c.92-1.576 2.167-2.824 3.743-3.743 1.576-.92 3.297-1.379 5.163-1.379s3.587.46 5.163 1.379c1.576.92 2.824 2.167 3.743 3.743.92 1.576 1.379 3.297 1.379 5.163z"/></svg>