<svg width="20" height="6" viewBox="0 0 20 6" xmlns="http://www.w3.org/2000/svg"><path d="M5.701 1.286v2.571c0 .357-.125.661-.375.911s-.554.375-.911.375h-2.571c-.357 0-.661-.125-.911-.375s-.375-.554-.375-.911v-2.571c0-.357.125-.661.375-.911s.554-.375.911-.375h2.571c.357 0 .661.125.911.375s.375.554.375.911zm6.857 0v2.571c0 .357-.125.661-.375.911s-.554.375-.911.375h-2.571c-.357 0-.661-.125-.911-.375s-.375-.554-.375-.911v-2.571c0-.357.125-.661.375-.911s.554-.375.911-.375h2.571c.357 0 .661.125.911.375s.375.554.375.911zm6.857 0v2.571c0 .357-.125.661-.375.911s-.554.375-.911.375h-2.571c-.357 0-.661-.125-.911-.375s-.375-.554-.375-.911v-2.571c0-.357.125-.661.375-.911s.554-.375.911-.375h2.571c.357 0 .661.125.911.375s.375.554.375.911z" fill="#333"/></svg>
