<svg width="21" height="21" viewBox="0 0 21 21" xmlns="http://www.w3.org/2000/svg"><path d="M20.237 12.571l-.013.094c-.571 2.393-1.768 4.333-3.589 5.819-1.821 1.487-3.955 2.23-6.402 2.23-1.304 0-2.565-.246-3.783-.737-1.219-.491-2.306-1.192-3.261-2.103l-1.728 1.728c-.17.17-.371.254-.603.254-.232 0-.433-.085-.603-.254-.17-.17-.254-.371-.254-.603v-6c0-.232.085-.433.254-.603.17-.17.371-.254.603-.254h6c.232 0 .433.085.603.254.17.17.254.371.254.603 0 .232-.085.433-.254.603l-1.835 1.835c.634.589 1.353 1.045 2.156 1.366.804.321 1.638.482 2.504.482 1.196 0 2.312-.29 3.348-.871 1.036-.58 1.866-1.379 2.491-2.397.098-.152.335-.674.71-1.567.071-.205.205-.308.402-.308h2.571c.116 0 .217.042.301.127.085.085.127.185.127.301zm.335-10.714v6c0 .232-.085.433-.254.603-.17.17-.371.254-.603.254h-6c-.232 0-.433-.085-.603-.254-.17-.17-.254-.371-.254-.603 0-.232.085-.433.254-.603l1.848-1.848c-1.321-1.223-2.879-1.835-4.674-1.835-1.196 0-2.312.29-3.348.871-1.036.58-1.866 1.379-2.491 2.397-.098.152-.335.674-.71 1.567-.071.205-.205.308-.402.308h-2.665c-.116 0-.217-.042-.301-.127-.085-.085-.127-.185-.127-.301v-.094c.58-2.393 1.786-4.333 3.616-5.819 1.83-1.487 3.973-2.23 6.429-2.23 1.304 0 2.571.248 3.804.743 1.232.496 2.326 1.194 3.281 2.096l1.741-1.728c.17-.17.371-.254.603-.254.232 0 .433.085.603.254.17.17.254.371.254.603z"/></svg>