<svg xmlns="http://www.w3.org/2000/svg" width="20" height="17" viewBox="0 0 20 17">
  <path fill="#777777" fill-rule="evenodd" d="M18,12.1071429 L18,2.46428571 C18,2.37723171 17.9681923,2.30189764 17.9045759,2.23828125 C17.8409595,2.17466486 17.7656254,2.14285714 17.6785714,2.14285714 L1.60714286,2.14285714 C1.52008885,2.14285714 1.44475478,2.17466486 1.38113839,2.23828125 C1.317522,2.30189764 1.28571429,2.37723171 1.28571429,2.46428571 L1.28571429,12.1071429 C1.28571429,12.1941969 1.317522,12.2695309 1.38113839,12.3331473 C1.44475478,12.3967637 1.52008885,12.4285714 1.60714286,12.4285714 L17.6785714,12.4285714 C17.7656254,12.4285714 17.8409595,12.3967637 17.9045759,12.3331473 C17.9681923,12.2695309 18,12.1941969 18,12.1071429 L18,12.1071429 Z M19.2857143,2.46428571 L19.2857143,12.1071429 C19.2857143,12.5491094 19.1283498,12.9274538 18.8136161,13.2421875 C18.4988824,13.5569212 18.1205379,13.7142857 17.6785714,13.7142857 L10.2857143,13.7142857 L10.2857143,15 L13.8214286,15 C13.915179,15 13.9921872,15.0301336 14.0524554,15.0904018 C14.1127235,15.1506699 14.1428571,15.2276781 14.1428571,15.3214286 L14.1428571,15.9642857 C14.1428571,16.0580362 14.1127235,16.1350443 14.0524554,16.1953125 C13.9921872,16.2555807 13.915179,16.2857143 13.8214286,16.2857143 L5.46428571,16.2857143 C5.37053525,16.2857143 5.29352709,16.2555807 5.23325893,16.1953125 C5.17299077,16.1350443 5.14285714,16.0580362 5.14285714,15.9642857 L5.14285714,15.3214286 C5.14285714,15.2276781 5.17299077,15.1506699 5.23325893,15.0904018 C5.29352709,15.0301336 5.37053525,15 5.46428571,15 L9,15 L9,13.7142857 L1.60714286,13.7142857 C1.16517636,13.7142857 0.786831931,13.5569212 0.472098214,13.2421875 C0.157364498,12.9274538 0,12.5491094 0,12.1071429 L0,2.46428571 C0,2.02231922 0.157364498,1.64397479 0.472098214,1.32924107 C0.786831931,1.01450735 1.16517636,0.857142857 1.60714286,0.857142857 L17.6785714,0.857142857 C18.1205379,0.857142857 18.4988824,1.01450735 18.8136161,1.32924107 C19.1283498,1.64397479 19.2857143,2.02231922 19.2857143,2.46428571 L19.2857143,2.46428571 Z"/>
</svg>
