<svg xmlns="http://www.w3.org/2000/svg" width="17" height="16" viewBox="0 0 17 16">
  <path fill="#777777" fill-rule="evenodd" d="M14.1428571,10.5055804 L14.1428571,13.1071429 C14.1428571,13.9040218 13.8599359,14.5853766 13.2940848,15.1512277 C12.7282338,15.7170787 12.046879,16 11.25,16 L2.89285714,16 C2.09597816,16 1.41462336,15.7170787 0.848772321,15.1512277 C0.282921278,14.5853766 0,13.9040218 0,13.1071429 L0,4.75 C0,3.95312102 0.282921278,3.27176622 0.848772321,2.70591518 C1.41462336,2.14006414 2.09597816,1.85714286 2.89285714,1.85714286 L5.45424107,1.85714286 C5.54129508,1.85714286 5.61662915,1.88895057 5.68024554,1.95256696 C5.74386193,2.01618335 5.77566964,2.09151742 5.77566964,2.17857143 C5.77566964,2.3593759 5.68861694,2.46651769 5.51450893,2.5 C4.99888135,2.67410801 4.5535733,2.87499886 4.17857143,3.10267857 C4.11160681,3.12946442 4.05803592,3.14285714 4.01785714,3.14285714 L2.89285714,3.14285714 C2.45089065,3.14285714 2.07254622,3.30022164 1.7578125,3.61495536 C1.44307878,3.92968907 1.28571429,4.3080335 1.28571429,4.75 L1.28571429,13.1071429 C1.28571429,13.5491094 1.44307878,13.9274538 1.7578125,14.2421875 C2.07254622,14.5569212 2.45089065,14.7142857 2.89285714,14.7142857 L11.25,14.7142857 C11.6919665,14.7142857 12.0703109,14.5569212 12.3850446,14.2421875 C12.6997784,13.9274538 12.8571429,13.5491094 12.8571429,13.1071429 L12.8571429,10.9575893 C12.8571429,10.8303565 12.9174101,10.7332593 13.0379464,10.6662946 C13.2254474,10.5792406 13.4062491,10.4553579 13.5803571,10.2946429 C13.6875005,10.1874995 13.8046869,10.160714 13.9319196,10.2142857 C14.0725453,10.2745539 14.1428571,10.3716511 14.1428571,10.5055804 L14.1428571,10.5055804 Z M16.5234375,5.5234375 L12.6662946,9.38058036 C12.5457583,9.50781314 12.3950902,9.57142857 12.2142857,9.57142857 C12.1339282,9.57142857 12.0502236,9.55468767 11.9631696,9.52120536 C11.7020076,9.4073655 11.5714286,9.20982283 11.5714286,8.92857143 L11.5714286,7 L9.96428571,7 C7.80132847,7 6.33482528,7.43861169 5.56473214,8.31584821 C4.76785316,9.23326352 4.52008778,10.816953 4.82142857,13.0669643 C4.84151796,13.2209829 4.77455434,13.3348211 4.62053571,13.4084821 C4.56696402,13.4218751 4.52678585,13.4285714 4.5,13.4285714 C4.39285661,13.4285714 4.30580391,13.3850451 4.23883929,13.2979911 C4.17187467,13.2042406 4.10156287,13.100447 4.02790179,12.9866071 C3.9542407,12.8727673 3.82198756,12.6434169 3.63113839,12.2985491 C3.44028922,11.9536813 3.27455427,11.6205373 3.13392857,11.2991071 C2.99330287,10.977677 2.86439791,10.5959844 2.74720982,10.1540179 C2.63002174,9.71205136 2.57142857,9.3035733 2.57142857,8.92857143 C2.57142857,8.60044479 2.5831472,8.29576033 2.60658482,8.01450893 C2.63002244,7.73325752 2.67689697,7.43192125 2.74720982,7.11049107 C2.81752267,6.78906089 2.91127174,6.49442098 3.02845982,6.2265625 C3.14564791,5.95870402 3.30301241,5.68582728 3.50055804,5.40792411 C3.69810367,5.13002093 3.92745405,4.88225555 4.18861607,4.66462054 C4.44977809,4.44698552 4.76618118,4.2410724 5.13783482,4.046875 C5.50948847,3.8526776 5.92633698,3.69029083 6.38839286,3.55970982 C6.85044874,3.42912881 7.38448358,3.3270093 7.99051339,3.25334821 C8.59654321,3.17968713 9.25446074,3.14285714 9.96428571,3.14285714 L11.5714286,3.14285714 L11.5714286,1.21428571 C11.5714286,0.933034308 11.7020076,0.735491641 11.9631696,0.621651786 C12.0502236,0.588169475 12.1339282,0.571428571 12.2142857,0.571428571 C12.3883937,0.571428571 12.5390619,0.635044007 12.6662946,0.762276786 L16.5234375,4.61941964 C16.6506703,4.74665242 16.7142857,4.89732056 16.7142857,5.07142857 C16.7142857,5.24553658 16.6506703,5.39620472 16.5234375,5.5234375 L16.5234375,5.5234375 Z"/>
</svg>
