<svg xmlns="http://www.w3.org/2000/svg" width="18" height="13" viewBox="0 0 18 13">
  <path fill="#777777" fill-rule="evenodd" d="M18,1.10714286 L18,12.0357143 C18,12.3169657 17.8694209,12.5145084 17.6082589,12.6283482 C17.5212049,12.6618305 17.4375004,12.6785714 17.3571429,12.6785714 C17.1763384,12.6785714 17.0256702,12.614956 16.9051339,12.4877232 L12.8571429,8.43973214 L12.8571429,10.1071429 C12.8571429,10.9040218 12.5742216,11.5853766 12.0083705,12.1512277 C11.4425195,12.7170787 10.7611647,13 9.96428571,13 L2.89285714,13 C2.09597816,13 1.41462336,12.7170787 0.848772321,12.1512277 C0.282921278,11.5853766 0,10.9040218 0,10.1071429 L0,3.03571429 C0,2.2388353 0.282921278,1.55748051 0.848772321,0.991629464 C1.41462336,0.425778421 2.09597816,0.142857143 2.89285714,0.142857143 L9.96428571,0.142857143 C10.7611647,0.142857143 11.4425195,0.425778421 12.0083705,0.991629464 C12.5742216,1.55748051 12.8571429,2.2388353 12.8571429,3.03571429 L12.8571429,4.69308036 L16.9051339,0.655133929 C17.0256702,0.52790115 17.1763384,0.464285714 17.3571429,0.464285714 C17.4375004,0.464285714 17.5212049,0.481026618 17.6082589,0.514508929 C17.8694209,0.628348783 18,0.825891451 18,1.10714286 L18,1.10714286 Z"/>
</svg>
